<svg width="8" height="18" viewBox="0 0 8 18" fill="none" xmlns="http://www.w3.org/2000/svg">
<path d="M-7.70651e-07 0.369558L-7.08689e-07 1.78708L6.01308 8.71084C6.07205 8.78095 6.10677 8.88855 6.10677 8.99961C6.10677 9.11346 6.07205 9.21828 6.01308 9.29048L-7.81491e-08 16.2122L-1.61571e-08 17.6304C-9.90634e-09 17.7734 0.0546904 17.9025 0.142195 17.9629C0.229699 18.0254 0.333849 18.0073 0.408988 17.9212L7.90489 9.28909C7.96433 9.21689 8 9.11207 8 8.99823C8 8.88716 7.96433 8.77956 7.90489 8.70945L0.408512 0.0786953C0.333848 -0.0101605 0.229223 -0.024044 0.141719 0.0384331C0.0546897 0.0974388 -7.76841e-07 0.227945 -7.70651e-07 0.369558Z" fill="#EF7B1C"/>
</svg>
