<svg width="98" height="39" viewBox="0 0 98 39" fill="none" xmlns="http://www.w3.org/2000/svg">
<g id="Group 52">
<rect id="Rectangle 100" width="98" height="39" rx="5" fill="url(#paint0_linear_3857_36)"/>
<g id="Vector">
<path d="M25.2019 31.6107C25.2019 31.6582 25.2189 31.6995 25.2451 31.7332L25.2019 30.8437V31.6107Z" fill="#F5F5F5"/>
<path d="M34.8919 11.6289L23.6883 5.13161C23.4078 4.9678 22.9658 4.94484 22.699 5.13161L13.7194 10.3383L11.4939 11.6289C11.1875 11.8065 11 12.1341 11 12.4893V25.4838C11 25.839 11.189 26.1666 11.4939 26.3442L11.9176 26.5891L20.8592 31.7744C20.9933 31.8525 21.1625 31.7545 21.1625 31.5983V28.3053C21.1625 28.2395 21.129 28.1767 21.0741 28.14C18.0971 26.1099 16.7481 22.9654 16.7481 19.6127C16.7481 15.6445 18.8258 11.5079 22.8255 9.62642C22.9276 9.57896 23.0313 9.556 23.1365 9.54987C23.2721 9.54222 23.4078 9.56518 23.5404 9.62795C24.5038 10.0811 25.4702 11.0364 26.2491 11.6778C28.7063 13.6972 29.6163 16.6029 29.6163 19.6157C29.6163 22.97 28.2673 26.113 25.2903 28.143C25.2354 28.1798 25.2019 28.2425 25.2019 28.3084V30.8481L25.2446 31.7376C25.3025 31.8127 25.4107 31.8448 25.5037 31.7897L34.8904 26.3457C35.1968 26.1681 35.3842 25.8405 35.3842 25.4853V12.4893C35.3842 12.1341 35.1952 11.8065 34.8904 11.6289H34.8919Z" fill="#F5F5F5"/>
<path d="M23.0359 9.44259C23.0695 9.4778 23.1015 9.51148 23.135 9.54669C23.2707 9.53904 23.4063 9.562 23.539 9.62477C24.5023 10.0779 25.4687 11.0332 26.2476 11.6747C28.7048 13.694 29.6148 16.5997 29.6148 19.6126C29.6148 22.9668 28.2658 26.1098 25.2888 28.1398C25.234 28.1766 25.2004 28.2393 25.2004 28.3052V30.845L25.2431 31.7345C25.3011 31.8095 25.4093 31.8416 25.5022 31.7865L31.6239 28.2363C32.732 25.6674 33.011 21.5339 33.011 21.5339C32.6467 10.8189 23.0329 9.44259 23.0329 9.44259H23.0359Z" fill="#F5F5F5"/>
<path d="M13.7194 10.3383L11.4939 11.6289C11.1875 11.8065 11 12.1341 11 12.4893V25.4838C11 25.839 11.189 26.1666 11.4939 26.3442L11.9176 26.5891C11.6905 17.1509 12.6905 12.5658 13.7194 10.3383Z" fill="#F5F5F5"/>
<path d="M27.1104 20.9048L26.5282 20.3368L23.7646 23.1935L23.7874 17.6868L26.2827 15.0506L25.6075 14.406C25.5084 14.3111 25.3529 14.3157 25.2584 14.4152L23.2037 16.5846L21.0605 14.3953C20.9705 14.3035 20.8227 14.3019 20.7312 14.3922L20.056 15.0582L22.6077 17.6654L22.5848 23.1614L19.7999 20.3323L19.3258 20.8038C19.1246 21.0028 19.1231 21.3289 19.3213 21.531L22.5787 24.8393L22.5436 33.5503L23.1503 33.5534C23.4658 33.5534 23.7234 33.2977 23.725 32.9808L23.757 24.9006L27.1165 21.4269C27.2583 21.2799 27.2552 21.0472 27.1089 20.9048H27.1104Z" fill="#F5F5F5"/>
<path d="M69.1824 25.8757C68.9891 25.7257 68.7586 25.6307 68.4936 25.5909C68.7586 25.5419 68.9827 25.447 69.1626 25.3046C69.3425 25.1622 69.4769 24.9908 69.5638 24.7918C69.6503 24.5927 69.6945 24.3815 69.6945 24.1564C69.6945 23.786 69.6232 23.4675 69.4815 23.1996C69.3397 22.9332 69.1244 22.7266 68.8382 22.5811C68.5516 22.4357 68.195 22.3622 67.768 22.3622H65.1707V28.9819H67.8458C68.2359 28.9819 68.5773 28.9069 68.87 28.7584C69.1626 28.6099 69.3885 28.3986 69.5454 28.1262C69.7023 27.8521 69.7815 27.5367 69.7815 27.1785V27.1647C69.7815 26.9045 69.7299 26.661 69.6278 26.436C69.5256 26.211 69.3775 26.0242 69.1842 25.8741L69.1824 25.8757ZM67.6231 22.973C68.0974 22.973 68.4522 23.0695 68.6887 23.2639C68.9247 23.4583 69.0425 23.7508 69.0425 24.1427C69.0425 24.5346 68.9339 24.8025 68.7177 24.9938C68.501 25.1852 68.1793 25.2801 67.7496 25.2801H65.8231V22.9715H67.6231V22.973ZM69.1276 27.1662C69.1276 27.549 68.9997 27.846 68.7453 28.0557C68.489 28.267 68.0818 28.3726 67.5228 28.3726H65.8231V25.891H67.7496C68.0698 25.891 68.3321 25.9415 68.5364 26.0441C68.7407 26.1451 68.8898 26.2905 68.9845 26.4789C69.0789 26.6672 69.1276 26.8922 69.1276 27.1525V27.1662Z" fill="#F5F5F5"/>
<path d="M73.2526 24.2821C73.0786 24.2193 72.8849 24.1887 72.6701 24.1887C72.3379 24.1887 72.0314 24.2668 71.7526 24.4229C71.5207 24.5531 71.3288 24.7276 71.1701 24.9435V24.2561H70.5176V28.982H71.1701V25.9906C71.1701 25.617 71.2787 25.3247 71.4963 25.1149C71.7144 24.9037 72.0195 24.798 72.4124 24.798C72.6061 24.798 72.7754 24.8241 72.9231 24.8761C73.0694 24.9282 73.1914 25.0032 73.2875 25.1042L73.7099 24.5576C73.5802 24.4367 73.4279 24.3449 73.2539 24.2821H73.2526Z" fill="#F5F5F5"/>
<path d="M76.6136 24.3954C76.3362 24.2576 76.0022 24.1887 75.612 24.1887C75.2554 24.1887 74.9306 24.2484 74.6398 24.3678C74.3485 24.4872 74.1138 24.6557 73.9353 24.8715L74.4111 25.1991C74.5772 25.0659 74.7677 24.9618 74.9825 24.8899C75.1974 24.8164 75.4169 24.7812 75.6396 24.7812C76.0146 24.7812 76.304 24.8868 76.5083 25.0981C76.7126 25.3094 76.8147 25.6064 76.8147 25.9876V26.1881H75.2917C74.7875 26.1881 74.3973 26.3106 74.1198 26.554C73.8438 26.7989 73.7053 27.1434 73.7053 27.5904C73.7053 28.0375 73.8562 28.4141 74.158 28.6697C74.4599 28.9254 74.8864 29.0525 75.4367 29.0525C75.6548 29.0525 75.8577 29.0341 76.0463 28.9974C76.2354 28.9606 76.4034 28.907 76.5497 28.8351C76.6532 28.7846 76.7383 28.7264 76.8147 28.6636V28.9836H77.4672V25.9462C77.4672 25.5757 77.394 25.2588 77.2491 24.997C77.1041 24.7352 76.8925 24.5347 76.615 24.3954H76.6136ZM76.4779 28.3084C76.2538 28.3911 75.9396 28.4309 75.5342 28.4309C75.1565 28.4309 74.8638 28.3574 74.6563 28.2105C74.4488 28.0635 74.3453 27.8568 74.3453 27.5889C74.3453 27.3378 74.4276 27.1419 74.5924 27.0041C74.7571 26.8663 74.9899 26.7974 75.2917 26.7974H76.8101V27.9625C76.8101 28.1109 76.6988 28.2273 76.4747 28.3084H76.4779Z" fill="#F5F5F5"/>
<path d="M81.1315 26.41C80.8996 26.3457 80.6208 26.3058 80.29 26.2875C80.2808 26.2844 80.272 26.2829 80.2628 26.2829H80.2352C80.2233 26.2829 80.2109 26.2829 80.1971 26.2798C80.1832 26.2798 80.1713 26.2768 80.1589 26.2768C79.8451 26.2584 79.598 26.2339 79.4181 26.2033C79.2382 26.1727 79.0891 26.1114 78.9718 26.018C78.8544 25.9262 78.7946 25.7854 78.7946 25.597C78.7946 25.3261 78.9032 25.1178 79.1208 24.9694C79.3389 24.8208 79.6454 24.7458 80.0415 24.7458C80.2536 24.7458 80.4791 24.781 80.7216 24.853C80.9641 24.9249 81.1955 25.026 81.4196 25.1561L81.7959 24.706C81.639 24.5974 81.4656 24.504 81.2765 24.4259C81.0874 24.3478 80.8909 24.2896 80.6848 24.2483C80.4791 24.207 80.2734 24.187 80.0691 24.187C79.673 24.187 79.3343 24.2437 79.0509 24.3554C78.7689 24.4672 78.554 24.6295 78.4077 24.8423C78.2613 25.0551 78.1882 25.3123 78.1882 25.6169C78.1882 25.9216 78.2581 26.1742 78.3985 26.3411C78.5388 26.5079 78.7141 26.6212 78.9212 26.6825C79.13 26.7437 79.3891 26.7881 79.702 26.8187C79.7139 26.8187 79.7263 26.8187 79.7383 26.8218C79.7507 26.8218 79.7627 26.8233 79.7751 26.8233C79.8055 26.8264 79.8359 26.8294 79.8681 26.8294C79.8998 26.831 79.9302 26.8325 79.961 26.8356C80.284 26.8601 80.5371 26.8907 80.7184 26.9274C80.8996 26.9642 81.0506 27.0331 81.1697 27.1371C81.2884 27.2397 81.3478 27.3944 81.3478 27.601C81.3478 27.8827 81.2245 28.1016 80.9792 28.2562C80.7322 28.4109 80.3848 28.489 79.9348 28.489C79.6863 28.489 79.4259 28.4415 79.1498 28.3451C78.8756 28.2501 78.6087 28.1154 78.3529 27.9424L77.9761 28.4017C78.1362 28.538 78.3207 28.6558 78.5264 28.7523C78.7339 28.8502 78.9566 28.9237 79.1958 28.9728C79.4351 29.0233 79.6803 29.0478 79.9348 29.0478C80.3604 29.0478 80.7243 28.9911 81.028 28.8763C81.3298 28.763 81.5599 28.5977 81.7168 28.3818C81.8737 28.1659 81.9533 27.9057 81.9533 27.5995C81.9533 27.2443 81.8737 26.9733 81.7168 26.7851C81.5599 26.5967 81.3648 26.4712 81.1348 26.4069L81.1315 26.41Z" fill="#F5F5F5"/>
<path d="M83.1832 22.3622H82.5308V23.0174H83.1832V22.3622Z" fill="#F5F5F5"/>
<path d="M83.36 24.2578H82.7075V28.9838H83.36V24.2578Z" fill="#F5F5F5"/>
<path d="M85.5643 28.3727C85.389 28.3727 85.2519 28.3176 85.1544 28.2074C85.0568 28.0972 85.0062 27.941 85.0062 27.7405V22.3638H84.3538V27.7313C84.3538 28.1293 84.4499 28.4371 84.6423 28.656C84.8341 28.8749 85.1056 28.9836 85.4562 28.9836H86.0001V28.3727H85.5643Z" fill="#F5F5F5"/>
<path d="M42.6902 17.4389C43.1719 17.722 43.7313 17.8644 44.367 17.8644C44.8898 17.8644 45.3714 17.7573 45.8135 17.5414C46.2555 17.3255 46.6259 17.0193 46.9262 16.6244C47.225 16.2294 47.4277 15.7716 47.5329 15.2512H46.6229C46.5223 15.6155 46.3562 15.9309 46.1275 16.1972C45.8973 16.4637 45.629 16.6673 45.3211 16.8066C45.0132 16.9459 44.6962 17.0163 44.367 17.0163C43.9127 17.0163 43.5118 16.9091 43.1658 16.6963C42.8198 16.4835 42.553 16.1804 42.364 15.7885C42.175 15.3966 42.0805 14.9434 42.0805 14.4275V11.8954C42.0805 11.3794 42.175 10.9263 42.364 10.5343C42.553 10.1424 42.8213 9.83932 43.1658 9.62342C43.5118 9.40758 43.9112 9.30042 44.367 9.30042C44.6962 9.30042 45.0132 9.3739 45.3211 9.5224C45.629 9.67088 45.8973 9.87758 46.1275 10.1439C46.3562 10.4104 46.5223 10.7181 46.6229 11.0641H47.5329C47.4277 10.5435 47.2265 10.0858 46.9293 9.6908C46.632 9.29582 46.2632 8.98964 45.8196 8.77378C45.3775 8.55792 44.8928 8.45075 44.367 8.45075C43.7313 8.45075 43.1719 8.59313 42.6902 8.87941C42.207 9.16416 41.8336 9.56833 41.5683 10.0889C41.3031 10.6093 41.1705 11.2125 41.1705 11.8969V14.4291C41.1705 15.1149 41.3031 15.7181 41.5683 16.2371C41.8336 16.7576 42.207 17.1602 42.6902 17.4434V17.4389Z" fill="#F5F5F5"/>
<path d="M50.3345 13.8731C49.6319 13.8731 49.0862 14.043 48.7005 14.3844C48.3149 14.7243 48.1228 15.2065 48.1228 15.8281C48.1228 16.4497 48.3331 16.9763 48.7539 17.3315C49.1745 17.6866 49.7691 17.8642 50.5358 17.8642C50.8391 17.8642 51.1226 17.8382 51.3863 17.7877C51.6501 17.7372 51.8832 17.6622 52.0875 17.5626C52.2308 17.4922 52.3497 17.4111 52.4564 17.3238V17.7693H53.3664V13.5363C53.3664 13.0203 53.2658 12.5794 53.0631 12.2136C52.8603 11.8477 52.5661 11.569 52.179 11.3761C51.7918 11.1833 51.3254 11.0868 50.7827 11.0868C50.2858 11.0868 49.8346 11.171 49.4276 11.3379C49.0206 11.5047 48.6929 11.739 48.446 12.039L49.109 12.4952C49.3407 12.3085 49.6059 12.1646 49.9047 12.0635C50.2035 11.9625 50.5098 11.9104 50.8208 11.9104C51.3437 11.9104 51.7461 12.0574 52.0311 12.3513C52.3146 12.6453 52.4579 13.0587 52.4579 13.5914V13.87H50.3345V13.8731ZM51.9899 16.8309C51.679 16.9456 51.24 17.0023 50.676 17.0023C50.1501 17.0023 49.7416 16.8998 49.4535 16.6946C49.1654 16.4894 49.0206 16.2016 49.0206 15.8281C49.0206 15.4775 49.1349 15.205 49.3651 15.0121C49.5953 14.8192 49.9199 14.7227 50.3422 14.7227H52.4594V16.3471C52.4594 16.5537 52.304 16.7145 51.9915 16.8293L51.9899 16.8309Z" fill="#F5F5F5"/>
<path d="M55.2703 13.6006C55.2703 13.0801 55.4212 12.6728 55.7245 12.3789C56.0279 12.085 56.4532 11.938 57.0004 11.938C57.2701 11.938 57.5066 11.9732 57.7108 12.0451C57.9151 12.1171 58.084 12.2227 58.2197 12.3621L58.8082 11.6012C58.6269 11.4313 58.4148 11.3042 58.1723 11.2169C57.9303 11.1296 57.6602 11.0868 57.3602 11.0868C56.8967 11.0868 56.4699 11.1955 56.0812 11.4144C55.7581 11.5951 55.4898 11.84 55.2688 12.1401V11.1817H54.3588V17.7693H55.2688V13.6006H55.2703Z" fill="#F5F5F5"/>
<path d="M63.3946 11.4008C63.0642 11.1911 62.6676 11.087 62.2043 11.087C61.7028 11.087 61.2638 11.1819 60.8874 11.3687C60.5778 11.5233 60.322 11.7622 60.1131 12.0775V8.54107H59.203V17.768H60.1131V16.9091C60.2778 17.2184 60.5065 17.4511 60.8078 17.5996C61.1663 17.7757 61.6112 17.8629 62.1417 17.8629C62.6175 17.8629 63.0261 17.7588 63.3675 17.549C63.7089 17.3393 63.9679 17.0362 64.1446 16.6382C64.3217 16.2401 64.4101 15.7625 64.4101 15.2037V13.7692C64.4101 13.2028 64.3231 12.7174 64.151 12.3163C63.9785 11.9137 63.7273 11.6091 63.3964 11.3993L63.3946 11.4008ZM63.4986 15.2052C63.4986 15.7977 63.3491 16.257 63.0504 16.5861C62.7514 16.9137 62.3276 17.0775 61.7805 17.0775C61.4437 17.0775 61.1497 16.9949 60.8966 16.8295C60.6436 16.6642 60.4499 16.4499 60.3155 16.185C60.1802 15.9201 60.1131 15.6446 60.1131 15.3568V13.561C60.1131 13.2778 60.1802 13.0068 60.3155 12.7481C60.4499 12.4909 60.645 12.2796 60.8966 12.1173C61.1497 11.955 61.4437 11.8724 61.7805 11.8724C62.3276 11.8724 62.7514 12.0377 63.0504 12.3699C63.3491 12.7021 63.4986 13.1706 63.4986 13.7753V15.2052Z" fill="#F5F5F5"/>
<path d="M69.28 11.4205C68.8764 11.1985 68.3901 11.0868 67.82 11.0868C67.2499 11.0868 66.765 11.1985 66.3596 11.4205C65.9556 11.6425 65.6464 11.9671 65.4343 12.3911C65.2208 12.8167 65.1159 13.3265 65.1159 13.9236V14.9952C65.1159 15.6 65.2227 16.1174 65.4343 16.5476C65.6464 16.9778 65.9556 17.3039 66.3596 17.5274C66.7636 17.7525 67.2499 17.8642 67.82 17.8642C68.3901 17.8642 68.8746 17.7525 69.28 17.5274C69.6839 17.3039 69.9936 16.9793 70.2053 16.5537C70.4174 16.1282 70.5241 15.6153 70.5241 15.0152V13.9236C70.5241 13.3265 70.4174 12.8167 70.2053 12.3911C69.9922 11.9656 69.6839 11.6425 69.28 11.4205ZM69.6154 15.0152C69.6154 15.6505 69.4585 16.1419 69.1447 16.491C68.8304 16.8401 68.3869 17.0145 67.8136 17.0145C67.2407 17.0145 66.8045 16.8401 66.4935 16.491C66.1829 16.1419 66.0256 15.6505 66.0256 15.0152V13.9236C66.0256 13.2929 66.1811 12.8045 66.4935 12.457C66.8064 12.1095 67.2453 11.9365 67.8136 11.9365C68.3823 11.9365 68.8304 12.1095 69.1447 12.457C69.4585 12.8045 69.6154 13.2929 69.6154 13.9236V15.0152Z" fill="#F5F5F5"/>
<path d="M72.2844 13.5807C72.2844 13.0556 72.4321 12.6514 72.7293 12.3651C73.0266 12.0804 73.4444 11.9365 73.9841 11.9365C74.5238 11.9365 74.9701 12.0972 75.2765 12.4187C75.5816 12.7402 75.7339 13.1934 75.7339 13.7766V17.7678H76.644V13.7705C76.644 12.9163 76.4489 12.2549 76.0601 11.788C75.6699 11.321 75.1196 11.0868 74.4078 11.0868C73.9017 11.0868 73.4582 11.1833 73.074 11.3761C72.7583 11.5353 72.4965 11.7788 72.2844 12.0987V11.1817H71.3743V17.7693H72.2844V13.5807Z" fill="#F5F5F5"/>
<path d="M41.297 19.749V28.9774H42.8076V25.2006H46.5101V23.7539H42.8076V21.2033H47.2052V19.749H41.297Z" fill="#F5F5F5"/>
<path d="M51.246 22.4248C51.0143 22.3376 50.7552 22.2947 50.4686 22.2947C50.1028 22.2947 49.7659 22.4034 49.4611 22.6223C49.2218 22.7923 49.019 23.0188 48.8514 23.2975V22.3912H47.2783V28.9787H48.8514V25.032C48.8514 24.6294 48.955 24.3155 49.1638 24.089C49.3727 23.8624 49.6668 23.7491 50.0449 23.7491C50.2385 23.7491 50.4092 23.7782 50.5571 23.8348C50.7049 23.8915 50.8284 23.9757 50.9305 24.0859L51.8527 22.8106C51.6805 22.6407 51.4777 22.5136 51.246 22.4264V22.4248Z" fill="#F5F5F5"/>
<path d="M55.909 22.716C55.5111 22.4343 55.0309 22.2935 54.4715 22.2935C53.8771 22.2935 53.3695 22.4144 52.9457 22.6548C52.522 22.8966 52.2003 23.2472 51.9793 23.7081C51.7583 24.1688 51.647 24.7261 51.647 25.3768V26.1192C51.647 26.7454 51.7628 27.2797 51.9945 27.7221C52.2263 28.1646 52.5616 28.4999 52.9991 28.728C53.4365 28.9561 53.9654 29.0709 54.5859 29.0709C55.0065 29.0709 55.4242 28.9851 55.8404 28.8137C56.255 28.6423 56.6284 28.4003 56.9623 28.0865L55.976 27.1603C55.7824 27.3302 55.5644 27.4619 55.3221 27.5568C55.0797 27.6517 54.8343 27.6992 54.5859 27.6992C54.0966 27.6992 53.7185 27.5645 53.4487 27.2965C53.2079 27.0562 53.0814 26.7209 53.0555 26.2968H57.1329V25.8651C57.1329 25.1119 57.0294 24.4689 56.8205 23.9362C56.6116 23.4034 56.3083 22.9962 55.9105 22.7145L55.909 22.716ZM53.0509 25.1884C53.0692 24.7246 53.1881 24.3556 53.4167 24.0938C53.6652 23.8091 54.0173 23.6652 54.4715 23.6652C54.8343 23.6652 55.1224 23.7923 55.3373 24.0464C55.5522 24.3005 55.6803 24.6572 55.723 25.118L55.7291 25.1884H53.0509Z" fill="#F5F5F5"/>
<path d="M61.901 22.716C61.503 22.4343 61.0231 22.2935 60.4636 22.2935C59.8692 22.2935 59.3617 22.4144 58.9379 22.6548C58.5141 22.8966 58.1925 23.2472 57.9712 23.7081C57.7503 24.1688 57.639 24.7261 57.639 25.3768V26.1192C57.639 26.7454 57.7549 27.2797 57.9864 27.7221C58.2183 28.1646 58.5537 28.4999 58.9913 28.728C59.4284 28.9561 59.9575 29.0709 60.5777 29.0709C60.9987 29.0709 61.4161 28.9851 61.8325 28.8137C62.247 28.6423 62.6202 28.4003 62.9542 28.0865L61.9682 27.1603C61.7745 27.3302 61.5564 27.4619 61.3139 27.5568C61.0719 27.6517 60.8262 27.6992 60.5777 27.6992C60.0886 27.6992 59.7104 27.5645 59.4408 27.2965C59.1997 27.0562 59.0732 26.7209 59.0474 26.2968H63.1249V25.8651C63.1249 25.1119 63.0214 24.4689 62.8125 23.9362C62.6036 23.4034 62.3004 22.9962 61.9024 22.7145L61.901 22.716ZM59.0428 25.1884C59.0612 24.7246 59.1799 24.3556 59.4086 24.0938C59.657 23.8091 60.0095 23.6652 60.4636 23.6652C60.8262 23.6652 61.1142 23.7923 61.3291 24.0464C61.5444 24.3005 61.6723 24.6572 61.7151 25.118L61.7211 25.1884H59.0428Z" fill="#F5F5F5"/>
</g>
</g>
<defs>
<linearGradient id="paint0_linear_3857_36" x1="-1.82539e-07" y1="19.5" x2="98" y2="19.5" gradientUnits="userSpaceOnUse">
<stop stop-color="#01D080"/>
<stop offset="1" stop-color="#019D83"/>
</linearGradient>
</defs>
</svg>
