<svg width="20" height="20" viewBox="0 0 20 20" fill="none" xmlns="http://www.w3.org/2000/svg">
<path d="M19.794 11.0674L19.0809 10.0001L19.794 8.9329C20.1684 8.37277 20.0169 7.61266 19.4568 7.23825L18.3895 6.52512L18.6399 5.26617C18.7034 4.94663 18.6388 4.62071 18.4572 4.3493C18.2756 4.07788 17.9997 3.8933 17.6801 3.8294L16.4211 3.57903L16.1708 2.32008C16.1072 2.00017 15.9226 1.72387 15.6512 1.54267C15.3798 1.36148 15.0542 1.29644 14.7339 1.36035L13.4749 1.61071L12.7618 0.543476C12.5806 0.272061 12.3043 0.0874841 11.9844 0.0239535C11.6641 -0.039953 11.3385 0.0250813 11.0671 0.206275L9.99979 0.919396L8.93251 0.206275C8.37237 -0.167766 7.61223 -0.0166459 7.2378 0.543476L6.52465 1.61071L5.26564 1.36035C4.94572 1.29682 4.61979 1.36148 4.34836 1.54267C4.07694 1.72387 3.89235 2.00017 3.82882 2.32008L3.57845 3.57903L2.31944 3.8294C1.9999 3.89293 1.72359 4.07751 1.54239 4.3493C1.36081 4.62071 1.29615 4.94663 1.35968 5.26617L1.61005 6.52512L0.542775 7.23825C-0.0173676 7.61266 -0.168493 8.37277 0.205562 8.9329L0.91871 10.0001L0.205562 11.0674C-0.168869 11.6275 -0.0173676 12.3876 0.542775 12.762L1.61005 13.4751L1.35968 14.7341C1.29615 15.0536 1.36081 15.3796 1.54239 15.651C1.72396 15.9224 1.9999 16.107 2.31944 16.1709L3.57845 16.4212L3.82882 17.6802C3.89235 17.9997 4.07694 18.276 4.34874 18.4572C4.62054 18.6388 4.9461 18.7038 5.26564 18.6399L6.52465 18.3896L7.2378 19.4568C7.419 19.7282 7.69531 19.9128 8.01523 19.9763C8.09418 19.9921 8.175 20 8.25545 20C8.49643 20 8.73063 19.9286 8.93251 19.794L9.99979 19.0809L11.0671 19.794C11.3381 19.9752 11.6637 20.0398 11.9844 19.9759C12.3046 19.912 12.581 19.7278 12.7618 19.4568L13.4749 18.3896L14.7336 18.6399C15.0535 18.7034 15.3794 18.6388 15.6508 18.4576C15.9223 18.2764 16.1068 18.0001 16.1704 17.6802L16.4208 16.4212L17.6798 16.1709C17.9993 16.1073 18.2756 15.9228 18.4568 15.6513C18.6384 15.3799 18.7031 15.054 18.6395 14.7345L18.3892 13.4755L19.4564 12.7624C19.7275 12.5812 19.9117 12.3053 19.9756 11.985C20.0391 11.6647 19.9748 11.3384 19.794 11.0674ZM19.0388 12.138L17.9192 12.8861C17.6974 13.0342 17.5873 13.2992 17.6395 13.5612L17.9023 14.8815C17.9264 15.0044 17.9016 15.1296 17.8316 15.2341C17.7617 15.3386 17.6557 15.4096 17.5328 15.4341L16.2125 15.6968C15.9508 15.7487 15.7478 15.9517 15.6956 16.2137L15.4328 17.5343C15.4084 17.6573 15.3377 17.7636 15.2332 17.8332C15.129 17.9031 15.0035 17.9279 14.8806 17.9035L13.5603 17.6407C13.2982 17.5885 13.0332 17.6982 12.8847 17.9204L12.1366 19.0399C12.0671 19.144 11.9607 19.2151 11.8374 19.2395C11.7141 19.2639 11.5889 19.2391 11.4847 19.1696L10.3652 18.4215C10.143 18.273 9.85618 18.273 9.63438 18.4215L8.51485 19.1696C8.41071 19.2391 8.2844 19.2639 8.16222 19.2399C8.03929 19.2151 7.93328 19.1444 7.86335 19.0399L7.11524 17.9204C6.99156 17.7351 6.7863 17.6279 6.56939 17.6279C6.52653 17.6279 6.4833 17.6321 6.44006 17.6407L5.1194 17.9035C4.99685 17.9279 4.87166 17.9027 4.76715 17.8328C4.66264 17.7629 4.59159 17.6565 4.56716 17.534L4.30438 16.2134C4.25212 15.9513 4.04912 15.7483 3.78747 15.6965L2.46681 15.4337C2.34388 15.4093 2.23786 15.3382 2.16794 15.2337C2.09839 15.1292 2.07321 15.004 2.09764 14.8811L2.36042 13.5609C2.41267 13.2992 2.3029 13.0342 2.08072 12.8857L0.961191 12.1376C0.74578 11.9936 0.68751 11.7012 0.831493 11.4858L1.5796 10.3663C1.7281 10.1445 1.7281 9.85766 1.5796 9.63549L0.831493 8.516C0.68751 8.3006 0.74578 8.00813 0.961191 7.86415L2.08072 7.11607C2.3029 6.96796 2.41267 6.70256 2.36042 6.44092L2.09764 5.12069C2.07358 4.99776 2.09839 4.87258 2.16832 4.76807C2.23824 4.66357 2.34425 4.59252 2.46719 4.56808L3.78747 4.30531C4.04912 4.25344 4.25212 4.05044 4.30438 3.78842L4.56716 2.46781C4.59159 2.34489 4.66227 2.2385 4.76678 2.16896C4.87091 2.09904 4.99647 2.07422 5.1194 2.09866L6.44006 2.36143C6.70209 2.41331 6.96712 2.30354 7.11524 2.08174L7.86335 0.962251C8.00734 0.746849 8.29981 0.688581 8.51522 0.832559L9.63476 1.58064C9.85656 1.72875 10.1434 1.72875 10.3656 1.58064L11.4851 0.832559C11.5892 0.762637 11.7148 0.737827 11.8377 0.762262C11.9607 0.786696 12.0667 0.85737 12.1366 0.961876L12.8847 2.08137C13.0328 2.30354 13.2979 2.41331 13.5599 2.36105L14.8802 2.09828C15.0031 2.07385 15.1283 2.09866 15.2328 2.16858C15.3373 2.23813 15.4084 2.34451 15.4328 2.46744L15.6956 3.78805C15.7478 4.04969 15.9508 4.25231 16.2125 4.30456L17.5328 4.56733C17.6557 4.59177 17.7617 4.66281 17.8316 4.76732C17.9016 4.87183 17.9268 4.99701 17.9023 5.11993L17.6395 6.44017C17.5873 6.70181 17.6971 6.96721 17.9192 7.11532L19.0388 7.8634C19.2542 8.00738 19.3124 8.29985 19.1685 8.51525L18.4207 9.63474C18.2726 9.85691 18.2722 10.1437 18.4207 10.3659L19.1692 11.4843C19.3132 11.6997 19.2549 11.9921 19.0395 12.1361L19.0388 12.138Z" fill="#EF7B1C"/>
<path d="M13.1445 10.461C12.4257 10.461 11.7509 10.7403 11.2438 11.2474C10.1957 12.2951 10.1957 14.0003 11.2438 15.0484C11.7509 15.5555 12.4257 15.8348 13.1445 15.8348C13.8633 15.8348 14.5381 15.5555 15.0452 15.0484C16.0933 14.0003 16.0933 12.2955 15.0452 11.2474C14.5381 10.7403 13.8633 10.461 13.1445 10.461ZM14.514 14.5164C14.1366 14.8939 13.6403 15.0826 13.1449 15.0826C12.6494 15.0826 12.1535 14.8939 11.7761 14.5164C11.0212 13.7616 11.0212 12.5335 11.7761 11.7786C12.1531 11.4012 12.649 11.2125 13.1449 11.2125C13.6407 11.2125 14.1366 11.4012 14.514 11.7786C15.2689 12.5335 15.2689 13.7616 14.514 14.5164Z" fill="#EF7B1C"/>
<path d="M13.1449 11.9639C12.8283 11.9639 12.531 12.0869 12.3077 12.3102C11.846 12.7718 11.846 13.5233 12.3077 13.9849C12.531 14.2086 12.8283 14.3315 13.1449 14.3315C13.4614 14.3311 13.7588 14.2082 13.9821 13.9849C14.4437 13.5233 14.4437 12.7718 13.9821 12.3102C13.7588 12.0869 13.4614 11.9639 13.1449 11.9639ZM13.4505 13.4533C13.3693 13.5349 13.2606 13.5797 13.1449 13.5797C13.0291 13.5797 12.9208 13.5349 12.8392 13.4533C12.6708 13.2849 12.6708 13.0105 12.8392 12.8421C12.9204 12.7605 13.0291 12.7158 13.1449 12.7158C13.2606 12.7158 13.3689 12.7605 13.4505 12.8421C13.6189 13.0105 13.6189 13.2849 13.4505 13.4533Z" fill="#EF7B1C"/>
<path d="M8.75056 8.75358C9.25807 8.24571 9.53777 7.57094 9.53777 6.85293C9.53777 6.13492 9.25845 5.45977 8.75056 4.95227C8.24342 4.44516 7.56862 4.16585 6.84983 4.16585C6.13105 4.16585 5.45624 4.44516 4.94911 4.95227C4.44159 5.46014 4.1619 6.13492 4.1619 6.85293C4.1619 7.57094 4.44159 8.24609 4.94911 8.75358C5.45624 9.2607 6.13105 9.54001 6.84983 9.54001C7.56862 9.54001 8.24342 9.2607 8.75056 8.75358ZM4.91377 6.85255C4.91377 6.33528 5.11489 5.84922 5.48068 5.48345C5.85774 5.10602 6.3536 4.91731 6.84946 4.91731C7.34531 4.91731 7.84117 5.10602 8.21861 5.48345C8.58402 5.84922 8.78552 6.33528 8.78552 6.85255C8.78552 7.36982 8.5844 7.85588 8.21861 8.22165C7.84155 8.59908 7.34569 8.78779 6.84983 8.78779C6.35397 8.78779 5.85812 8.59908 5.48068 8.22165C5.11527 7.85588 4.91377 7.36982 4.91377 6.85255Z" fill="#EF7B1C"/>
<path d="M7.68666 7.6901C8.14831 7.22847 8.14831 6.47701 7.68666 6.01538C7.46336 5.7917 7.16599 5.66878 6.84946 5.66878C6.53292 5.66878 6.23555 5.79208 6.01225 6.01538C5.5506 6.47701 5.5506 7.22847 6.01225 7.6901C6.23555 7.91378 6.53292 8.0367 6.84946 8.0367C7.16599 8.0367 7.46336 7.9134 7.68666 7.6901ZM6.5442 6.5473C6.6254 6.46573 6.73404 6.42099 6.84983 6.42099C6.96562 6.42099 7.07389 6.46573 7.15547 6.5473C7.32389 6.71572 7.32389 6.99014 7.15547 7.15855C7.07427 7.24013 6.96562 7.28486 6.84983 7.28486C6.73404 7.28486 6.62578 7.24013 6.5442 7.15855C6.37578 6.99014 6.37578 6.71572 6.5442 6.5473Z" fill="#EF7B1C"/>
<path d="M14.9824 6.05184C14.9824 5.77554 14.8749 5.51578 14.6798 5.32068C14.4847 5.12557 14.2253 5.01806 13.949 5.01806C13.6727 5.01806 13.4129 5.12557 13.2178 5.32068L5.32053 13.2176C5.12542 13.4131 5.0179 13.6729 5.0179 13.9488C5.0179 14.2247 5.12542 14.4845 5.32053 14.6796C5.51602 14.8751 5.77541 14.9826 6.05172 14.9826C6.32804 14.9826 6.58781 14.8751 6.78292 14.6796L14.6798 6.78301C14.8749 6.5879 14.9824 6.32814 14.9824 6.05184ZM14.1479 6.25108L6.25097 14.1477C6.19796 14.201 6.12691 14.2304 6.05172 14.2304C5.97654 14.2304 5.90586 14.201 5.85248 14.1477C5.79909 14.0947 5.76977 14.0236 5.76977 13.9484C5.76977 13.8732 5.79909 13.8026 5.85248 13.7492L13.7497 5.85223C13.8046 5.79734 13.8768 5.7699 13.949 5.7699C14.0212 5.7699 14.093 5.79772 14.1479 5.8526C14.2012 5.90561 14.2306 5.97666 14.2306 6.05184C14.2306 6.12703 14.2012 6.1977 14.1479 6.25108Z" fill="#EF7B1C"/>
</svg>
