<svg width="18" height="8" viewBox="0 0 18 8" fill="none" xmlns="http://www.w3.org/2000/svg">
<path id="arrow_down" d="M17.6304 0H16.2129L9.28916 6.01308C9.21905 6.07205 9.11145 6.10677 9.00039 6.10677C8.88654 6.10677 8.78172 6.07205 8.70952 6.01308L1.78784 0H0.369632C0.226631 0 0.097513 0.0546904 0.0371193 0.142195C-0.025357 0.229699 -0.00730831 0.333849 0.0787701 0.408988L8.71091 7.90489C8.78311 7.96433 8.88793 8 9.00177 8C9.11284 8 9.22044 7.96433 9.29055 7.90489L17.9213 0.408513C18.0102 0.333849 18.024 0.229224 17.9616 0.141719C17.9026 0.0546905 17.7721 0 17.6304 0Z" fill="#EF7B1C"/>
</svg>
