<svg width="25" height="26" viewBox="0 0 25 26" fill="none" xmlns="http://www.w3.org/2000/svg">
<path id="Vector" d="M24.7812 6.18281C24.5958 5.95469 24.3174 5.82227 24.0234 5.82227H6.33477L6.26231 5.15664L6.25972 5.13525C5.91304 2.49277 3.64175 0.5 0.976563 0.5C0.437207 0.5 0 0.937207 0 1.47656C0 2.01592 0.437207 2.45312 0.976563 2.45312C2.66143 2.45312 4.0978 3.7104 4.32188 5.3793L5.48267 16.0434C4.46753 16.5042 3.75977 17.5274 3.75977 18.7129C3.75977 18.721 3.75986 18.7292 3.76006 18.7373C3.75986 18.7454 3.75977 18.7536 3.75977 18.7617C3.75977 20.3771 5.07402 21.6914 6.68945 21.6914H7.08682C6.9875 21.9826 6.93359 22.2947 6.93359 22.6191C6.93359 24.2076 8.22593 25.5 9.81446 25.5C11.403 25.5 12.6953 24.2076 12.6953 22.6191C12.6953 22.2947 12.6414 21.9826 12.5421 21.6914H16.7548C16.6555 21.9826 16.6016 22.2947 16.6016 22.6191C16.6016 24.2076 17.8939 25.5 19.4825 25.5C21.071 25.5 22.3633 24.2076 22.3633 22.6191C22.3633 21.0307 21.071 19.7383 19.4825 19.7383H6.68945C6.15098 19.7383 5.71289 19.3002 5.71289 18.7617C5.71289 18.7536 5.71279 18.7454 5.7126 18.7373C5.71279 18.7292 5.71289 18.721 5.71289 18.7129C5.71289 18.1744 6.15098 17.7363 6.68945 17.7363H19.1568C20.8903 17.7363 22.4812 16.6638 23.2098 15.0038C23.4266 14.51 23.202 13.9339 22.7081 13.7171C22.2143 13.5003 21.6382 13.725 21.4214 14.2188C21.0107 15.1545 20.1006 15.7832 19.1568 15.7832H7.41899L6.54736 7.77539H22.8222L22.3443 10.0662C22.2342 10.5942 22.573 11.1115 23.1009 11.2216C23.1682 11.2356 23.2352 11.2424 23.3013 11.2424C23.7541 11.2424 24.1602 10.9258 24.2563 10.465L24.9794 6.99824C25.0395 6.71045 24.9667 6.41094 24.7812 6.18281ZM19.4824 21.6914C19.994 21.6914 20.4102 22.1076 20.4102 22.6191C20.4102 23.1307 19.994 23.5469 19.4824 23.5469C18.9709 23.5469 18.5547 23.1307 18.5547 22.6191C18.5547 22.1076 18.9709 21.6914 19.4824 21.6914ZM9.81446 21.6914C10.326 21.6914 10.7422 22.1076 10.7422 22.6191C10.7422 23.1307 10.326 23.5469 9.81446 23.5469C9.30288 23.5469 8.88672 23.1307 8.88672 22.6191C8.88672 22.1076 9.30288 21.6914 9.81446 21.6914Z" fill="white"/>
</svg>
